<svg width="23" height="24" viewBox="0 0 23 24" fill="none" xmlns="http://www.w3.org/2000/svg">
<g clip-path="url(#clip0_897_2808)">
<path d="M11.5201 23.5C17.8824 23.5 23.0402 18.3513 23.0402 12C23.0402 5.64873 17.8824 0.5 11.5201 0.5C5.15772 0.5 0 5.64873 0 12C0 18.3513 5.15772 23.5 11.5201 23.5Z" fill="#265FF6"/>
<path d="M10.7872 8.31121C10.7526 8.371 10.7344 8.43882 10.7344 8.50786C10.7344 8.5769 10.7526 8.64472 10.7872 8.70451L13.7499 13.8252C13.9038 14.0921 13.9848 14.3947 13.9847 14.7026C13.9847 15.0106 13.9036 15.3131 13.7496 15.5799C13.5956 15.8467 13.3741 16.0685 13.1073 16.223C12.8404 16.3775 12.5376 16.4594 12.2292 16.4603H11.4254C11.1166 16.4606 10.8132 16.3793 10.546 16.2245C10.2789 16.0698 10.0576 15.8472 9.90466 15.5793L8.58875 13.2982C8.55538 13.2379 8.50625 13.1878 8.44658 13.1531C8.38691 13.1185 8.31894 13.1007 8.24992 13.1016C8.19603 13.1034 8.1428 13.1141 8.09233 13.133C8.01434 13.1651 7.95016 13.2236 7.9111 13.2982L6.08301 16.4603H4.50708L6.72915 12.6139C6.88154 12.3456 7.10272 12.1225 7.36997 11.9677C7.63723 11.8129 7.94093 11.7318 8.24992 11.7329C8.56015 11.7298 8.86531 11.8114 9.13245 11.9689C9.39948 12.1253 9.62193 12.3473 9.77858 12.6139L11.0945 14.895C11.1289 14.9545 11.1782 15.0039 11.2377 15.0384C11.2971 15.0729 11.3646 15.0912 11.4333 15.0917H12.2292C12.2984 15.0936 12.3668 15.0762 12.4266 15.0415C12.4865 15.0068 12.5354 14.956 12.568 14.895C12.6026 14.8352 12.6208 14.7674 12.6208 14.6984C12.6208 14.6293 12.6026 14.5615 12.568 14.5017L9.60523 9.38098C9.45038 9.11454 9.36883 8.81197 9.36883 8.50393C9.36883 8.19589 9.45038 7.89333 9.60523 7.62688L9.99921 6.95041C10.1516 6.68208 10.3728 6.45906 10.64 6.30424C10.9073 6.14942 11.211 6.06838 11.52 6.06942C11.8302 6.06632 12.1354 6.14792 12.4025 6.3054C12.6695 6.46178 12.892 6.68384 13.0486 6.95041L18.5487 16.4603H16.9727L11.8667 7.63474C11.8333 7.57443 11.7842 7.52428 11.7245 7.48965C11.6649 7.45502 11.5969 7.4372 11.5279 7.4381C11.4587 7.43641 11.3904 7.45389 11.3306 7.48861C11.2708 7.52332 11.2218 7.57391 11.189 7.63474L10.7872 8.31121Z" fill="white"/>
</g>
<defs>
<clipPath id="clip0_897_2808">
<rect width="23" height="23" fill="white" transform="translate(0 0.5)"/>
</clipPath>
</defs>
</svg>
